<svg xmlns="http://www.w3.org/2000/svg" viewBox="0 0 720 520"><rect width="720" height="520" rx="36" fill="#e9f8f0"/><path d="M0 390c130-70 230 20 360-45s230-45 360 20v155H0z" fill="#1eb85b" opacity=".22"/><rect x="90" y="100" width="260" height="260" rx="22" fill="#fff" stroke="#cfe8db"/><rect x="370" y="80" width="250" height="300" rx="22" fill="#fff" stroke="#cfe8db"/><path d="M420 135h145M420 175h125M420 215h155" stroke="#1677c8" stroke-width="14" stroke-linecap="round"/><circle cx="180" cy="180" r="46" fill="#795139"/><path d="M130 310c10-72 88-72 100 0" fill="#1677c8"/><circle cx="270" cy="190" r="42" fill="#5d3d2e"/><path d="M230 310c5-65 75-65 90 0" fill="#1eb85b"/><path d="M185 250l95-20 22 76H200z" fill="#ffe38a"/><text x="360" y="445" text-anchor="middle" font-family="Arial" font-size="34" font-weight="800" fill="#073b2d">SDG 4 Quality Education • Sierra Leone</text></svg>
